<?xml version="1.0" standalone="no"?><!DOCTYPE svg PUBLIC "-//W3C//DTD SVG 1.1//EN" "http://www.w3.org/Graphics/SVG/1.1/DTD/svg11.dtd"><svg t="1611556393308" class="icon" viewBox="0 0 1024 1024" version="1.1" xmlns="http://www.w3.org/2000/svg" p-id="9538" xmlns:xlink="http://www.w3.org/1999/xlink" width="48" height="48"><defs><style type="text/css"></style></defs><path d="M768.032085 199.133867V95.982933c0-17.646933 14.336-31.982933 31.982934-31.982933h64.034133c17.646933 0 31.982933 14.336 31.982933 31.982933v212.855467l105.642667 90.555733a64 64 0 0 1-83.285333 97.211734L512.032085 148.309333 105.674752 496.605867A64 64 0 1 1 22.389419 399.36L470.389419 15.394133a64 64 0 0 1 83.285333 0l214.357333 183.739734zM128.032085 576L512.032085 256l384 320v416.017067c0 17.646933-14.336 31.982933-32.017066 31.982933h-192a31.982933 31.982933 0 0 1-31.982934-31.982933v-160.017067a128 128 0 0 0-256 0v160.017067c0 17.646933-14.336 31.982933-31.982933 31.982933H160.049152a31.982933 31.982933 0 0 1-32.017067-31.982933V576z" p-id="9539" fill="#f3a6e2"></path></svg>